<?xml version="1.0" encoding="utf-8"?>
<!-- Generator: Adobe Illustrator 24.0.0, SVG Export Plug-In . SVG Version: 6.00 Build 0)  -->
<svg version="1.1" id="Layer_1" xmlns="http://www.w3.org/2000/svg" xmlns:xlink="http://www.w3.org/1999/xlink" x="0px" y="0px"
	 viewBox="0 0 64.31 63.49" style="enable-background:new 0 0 64.31 63.49;" xml:space="preserve">
<style type="text/css">
	.st0{fill:none;}
	.st1{fill:#010202;}
	.st2{fill:#FFFFFF;}
	.st3{fill:none;stroke:#010202;stroke-width:1.5;}
	.st4{fill:none;stroke:#010202;}
	.st5{fill:none;stroke:#0A0C0C;stroke-width:1.5;stroke-miterlimit:10;}
	.st6{fill:none;stroke:#010202;stroke-width:1.5;stroke-miterlimit:10;}
	.st7{fill:none;stroke:#0B0C0C;stroke-width:1.5;stroke-miterlimit:10;}
</style>
<g id="Group_158" transform="translate(0.455 0.75)">
	<line id="Line_51" class="st5" x1="2.56" y1="36.32" x2="2.39" y2="52.5"/>
	<path id="Path_30" class="st5" d="M2.33,36.69c7.08-3.69,15.2-4.86,23.03-3.32c6.57,1.38,12.61,4.63,17.37,9.37"/>
	<path id="Path_31" class="st5" d="M2.14,52.89c3.29-1.66,6.87-2.65,10.54-2.93c10.46-0.73,15.8,5.24,25.37,7.03
		c5.06,0.94,12.77,0.99,23.22-4.1"/>
	<path id="Path_32" class="st5" d="M34.41,42.35c3.4,4.43,8.4,7.35,13.93,8.13c3.9,0.45,7.85-0.23,11.38-1.95"/>
	<path id="Path_33" class="st5" d="M61.21,52.91c1.26-0.55,1.83-2.02,1.28-3.27c-0.02-0.04-0.04-0.08-0.06-0.13
		c-0.61-0.91-1.75-1.3-2.79-0.94"/>
	<line id="Line_52" class="st5" x1="50.55" y1="50.63" x2="42.65" y2="42.65"/>
	<g id="Group_157" transform="translate(39.056 7.337)">
		<g id="Group_156">
			<path id="Path_34" class="st6" d="M15.46,6.4C13.44-0.44,6.9,2.63,6.3,6.05C5.46,2.41-0.92-0.31-2.87,6.41
				c-2.17,7.48,8.4,14.2,9.16,15.3C7.05,20.83,17.63,13.76,15.46,6.4z"/>
		</g>
	</g>
	<circle id="Ellipse_21" class="st6" cx="45.1" cy="18.05" r="14.76"/>
</g>
</svg>
