<svg id="Layer_1" data-name="Layer 1" xmlns="http://www.w3.org/2000/svg" viewBox="0 0 29.36 42.54"><defs><style>.cls-1{fill:none;stroke:#000;stroke-miterlimit:10;}.cls-2,.cls-3{isolation:isolate;}.cls-3{font-size:9.95px;font-family:SimvoniRegular, Simvoni;}.cls-4{letter-spacing:-0.04em;}</style></defs><title>新图标</title><g id="Group_228" data-name="Group 228"><path id="Path_91" data-name="Path 91" class="cls-1" d="M7.83,25.58,3,38.7l4.25-1.87,2,4.19,4.89-13.24A12,12,0,0,1,7.83,25.58Z"/><path id="Path_92" data-name="Path 92" class="cls-1" d="M15.18,27.77,20.07,41l2-4.19,4.25,1.87L21.49,25.58A11.93,11.93,0,0,1,15.18,27.77Z"/><g id="Group_227" data-name="Group 227"><path id="Path_93" data-name="Path 93" class="cls-1" d="M14.66,25.57a10.88,10.88,0,1,1,10.75-11v.13A10.83,10.83,0,0,1,14.66,25.57Zm0-21.47A10.59,10.59,0,1,0,25.12,14.82v-.13A10.54,10.54,0,0,0,14.66,4.1Z"/></g><path id="Path_94" data-name="Path 94" d="M29.06,17.06a3.08,3.08,0,0,0-.39-1.1l-.24-.35a2.2,2.2,0,0,1-.37-.67,1.69,1.69,0,0,1,.08-1.11,2.58,2.58,0,0,1,.32-.49,3.51,3.51,0,0,0,.33-.52,3.05,3.05,0,0,0,.11-2.39,3.29,3.29,0,0,0-1.75-1.82A1.71,1.71,0,0,1,26,7c0-.14,0-.29,0-.43a3.43,3.43,0,0,0,0-.64,3.08,3.08,0,0,0-2.47-2.76,3.77,3.77,0,0,0-.95,0A2.28,2.28,0,0,1,21.34,3a2.16,2.16,0,0,1-.81-1A4,4,0,0,0,20,1.14,3.11,3.11,0,0,0,15.68.87,1.69,1.69,0,0,1,13.49.74a3.05,3.05,0,0,0-4.28.52A3.17,3.17,0,0,0,8.78,2a3.14,3.14,0,0,1-.18.37,1.6,1.6,0,0,1-.86.72,2,2,0,0,1-.93.07,3.17,3.17,0,0,0-1.4.11A3.11,3.11,0,0,0,3.54,5a3,3,0,0,0-.28,1.28,3.25,3.25,0,0,0,0,.44,2.06,2.06,0,0,1,0,.7,1.65,1.65,0,0,1-.51.88,2.3,2.3,0,0,1-.61.35l-.38.18A3.12,3.12,0,0,0,.64,13.05a.16.16,0,0,1,0,.07l.21.29a2,2,0,0,1,.37.67,1.67,1.67,0,0,1-.14,1.22c-.08.14-.17.26-.26.39a2.48,2.48,0,0,0-.33.51,3,3,0,0,0-.31,1.26,3.13,3.13,0,0,0,.85,2.21,3.43,3.43,0,0,0,1,.64,2.62,2.62,0,0,1,.92.62,1.8,1.8,0,0,1,.32,1.42,4.82,4.82,0,0,0,0,.76,3.11,3.11,0,0,0,1.31,2.2,3.3,3.3,0,0,0,2.35.51,1.69,1.69,0,0,1,1.76,1,3.25,3.25,0,0,0,1.57,1.75,3.14,3.14,0,0,0,2.44.12,4.64,4.64,0,0,0,.79-.43,2,2,0,0,1,1.36-.47,2.68,2.68,0,0,1,1.07.49,3.18,3.18,0,0,0,1,.52,3.53,3.53,0,0,0,.72.08,3.05,3.05,0,0,0,2.53-1.29,3.28,3.28,0,0,0,.32-.58,3.13,3.13,0,0,1,.22-.45,1.78,1.78,0,0,1,1.92-.72,3.17,3.17,0,0,0,2.39-.79,3,3,0,0,0,1-2.72,2.29,2.29,0,0,1,0-.64,1.64,1.64,0,0,1,.57-1,2.05,2.05,0,0,1,.56-.31l.38-.18a3.1,3.1,0,0,0,1.53-3.18Zm-1.8,0a.34.34,0,1,1-.27-.4h0a.34.34,0,0,1,.26.4ZM26.2,20a.34.34,0,1,1-.26-.41h0a.35.35,0,0,1,.26.41Zm-1.81,2.9a.34.34,0,1,1-.26-.4h0a.33.33,0,0,1,.26.4ZM21.8,25a.34.34,0,1,1-.26-.41h0a.34.34,0,0,1,.26.4Zm-3.14,1.47a.34.34,0,0,1-.4.26.33.33,0,0,1-.26-.4.34.34,0,0,1,.4-.27h0a.33.33,0,0,1,.26.4Zm-4.25.82a.34.34,0,1,1,.48,0,.35.35,0,0,1-.48,0Zm-3.35-.56a.34.34,0,0,1-.4-.26.34.34,0,0,1,.66-.15.35.35,0,0,1-.26.41ZM7.92,25.27a.34.34,0,0,1-.14-.67.34.34,0,0,1,.4.26.33.33,0,0,1-.26.4ZM5.33,23.12a.34.34,0,0,1-.4-.26.34.34,0,0,1,.66-.14.34.34,0,0,1-.26.4Zm-1.81-2.9a.34.34,0,1,1,.26-.41A.35.35,0,0,1,3.52,20.22ZM3.37,9.68a.35.35,0,0,1-.48,0,.34.34,0,0,1,.43-.52h0a.34.34,0,0,1,0,.48Zm.72-2.63a.34.34,0,1,1,0,.48h0a.34.34,0,0,1,0-.48Zm1.5-1.78a.35.35,0,0,1,.48,0,.33.33,0,0,1,0,.48.33.33,0,0,1-.47,0h0a.35.35,0,0,1,0-.48Zm2-1.65a.34.34,0,1,1,.52.43.32.32,0,0,1-.47,0h0a.34.34,0,0,1,0-.48ZM9.8,2.57a.34.34,0,0,1,.53.43.33.33,0,0,1-.48,0h0a.34.34,0,0,1,0-.48ZM12.08,2a.35.35,0,0,1,.48,0,.34.34,0,0,1,0,.48.35.35,0,0,1-.48,0h0A.34.34,0,0,1,12.08,2Zm4.67,0a.34.34,0,1,1,0,.48h0a.34.34,0,0,1,0-.48h0Zm2.28.6a.34.34,0,0,1,.48,0A.34.34,0,0,1,19,3h0a.35.35,0,0,1,0-.48Zm2.22,1a.34.34,0,0,1,.43.52.35.35,0,0,1-.48,0h0a.34.34,0,0,1,.05-.48ZM24.75,7a.34.34,0,1,1,0,.48h0a.34.34,0,0,1,0-.48ZM26,9.2a.34.34,0,1,1,0,.48h0a.34.34,0,0,1,0-.48Zm.71,2.42a.34.34,0,1,1,0,.48h0a.35.35,0,0,1,0-.48Zm-.24,2.89A11.8,11.8,0,1,1,14.61,2.75h.05a11.8,11.8,0,0,1,11.8,11.76ZM23.68,5.74a.32.32,0,0,1-.47,0,.33.33,0,1,1,.51-.43h0a.35.35,0,0,1,0,.48h0ZM14.89,2.2a.35.35,0,0,1-.48,0,.34.34,0,0,1-.05-.48.35.35,0,0,1,.48,0h0a.34.34,0,0,1,.05.48ZM2.65,12.1a.34.34,0,1,1,0-.48h0a.36.36,0,0,1,.05.48Zm-.38,1.81a.34.34,0,1,1-.48,0,.34.34,0,0,1,.48,0Zm-.21,3.16a.34.34,0,1,1,.66-.15.34.34,0,0,1-.26.41h0a.35.35,0,0,1-.4-.26ZM27,14.38a.35.35,0,0,1,0-.48.34.34,0,0,1,.48,0,.34.34,0,0,1-.52.44Z"/><g id="_100" data-name=" 100" class="cls-2"><text class="cls-3" transform="translate(6.54 18.15)"><tspan class="cls-4">1</tspan><tspan x="4.12" y="0">00</tspan></text></g></g></svg>