<?xml version="1.0" encoding="utf-8"?>
<!-- Generator: Adobe Illustrator 24.0.0, SVG Export Plug-In . SVG Version: 6.00 Build 0)  -->
<svg version="1.1" id="Layer_1" xmlns="http://www.w3.org/2000/svg" xmlns:xlink="http://www.w3.org/1999/xlink" x="0px" y="0px"
	 viewBox="0 0 64.31 63.49" style="enable-background:new 0 0 64.31 63.49;" xml:space="preserve">
<style type="text/css">
	.st0{fill:none;}
	.st1{fill:#010202;}
	.st2{fill:#FFFFFF;}
	.st3{fill:none;stroke:#010202;stroke-width:1.5;}
	.st4{fill:none;stroke:#010202;}
	.st5{font-family:'SimvoniRegular';}
	.st6{font-size:38px;}
	.st7{fill:none;stroke:#0A0C0C;stroke-width:1.5;stroke-miterlimit:10;}
	.st8{fill:none;stroke:#010202;stroke-width:1.5;stroke-miterlimit:10;}
	.st9{fill:none;stroke:#0B0C0C;stroke-width:1.5;stroke-miterlimit:10;}
</style>
<g id="Polygon_17_1_" transform="translate(46.628 0) rotate(45)">
	<path class="st0" d="M12.13-9.03l18.5,24.12h-37L12.13-9.03z"/>
	<path class="st1" d="M12.12-6.56L-3.33,13.6h30.91L12.12-6.56 M12.12-9.03l18.5,24.12H-6.37L12.12-9.03z"/>
</g>
<g id="Rectangle_49_1_" transform="translate(29 17.627) rotate(45)">
	
		<rect x="-8.38" y="-7.02" transform="matrix(2.535182e-06 1 -1 2.535182e-06 23.602 -0.6448)" class="st2" width="41.01" height="36.99"/>
	
		<rect x="-7.63" y="-6.27" transform="matrix(2.535182e-06 1 -1 2.535182e-06 23.602 -0.6448)" class="st3" width="39.51" height="35.49"/>
</g>
<g id="Ellipse_19_1_" transform="translate(56.294 15.353) rotate(45)">
	<circle class="st2" cx="-5.57" cy="-8.22" r="0.8"/>
	<circle class="st4" cx="-5.57" cy="-8.22" r="0.3"/>
</g>
<text transform="matrix(1 0 0 1 21.4073 44.6406)" class="st1 st5 st6">$</text>
<text transform="matrix(1 0 0 1 21.4073 44.6406)" class="st4 st5 st6">$</text>
</svg>
